<?xml version="1.0" encoding="UTF-8" standalone="no"?>
<!DOCTYPE svg PUBLIC "-//W3C//DTD SVG 1.1//EN" "http://www.w3.org/Graphics/SVG/1.1/DTD/svg11.dtd">
<svg class="wilson-loader" width="100%" height="100%" viewBox="0 0 51 50" version="1.1" xmlns="http://www.w3.org/2000/svg" style="fill-rule:evenodd;clip-rule:evenodd;stroke-linejoin:round;stroke-miterlimit:2;">
    <path class="wilson-loader__bar" d="M3.9,14.74C2.82,15.36 2.44,16.72 3.06,17.78L13.44,35.3C14.06,36.36 15.46,36.72 16.54,36.1L19.72,34.32C20.82,33.72 21.18,32.36 20.56,31.3L10.18,13.78C9.56,12.72 8.16,12.34 7.08,12.96L3.9,14.74Z" />
    <path class="wilson-loader__bar" d="M17.22,14.74C16.14,15.36 15.76,16.72 16.4,17.78L26.76,35.3C27.4,36.36 28.78,36.72 29.88,36.1L33.04,34.32C34.14,33.72 34.5,32.36 33.88,31.3L23.5,13.78C22.88,12.72 21.5,12.34 20.4,12.96L17.22,14.74Z" />
    <path class="wilson-loader__bar" d="M30.58,14.74C29.5,15.36 29.12,16.72 29.76,17.78L40.12,35.3C40.74,36.36 42.14,36.72 43.22,36.1L46.4,34.32C47.5,33.72 47.86,32.36 47.24,31.3L36.88,13.78C36.24,12.72 34.84,12.34 33.76,12.96L30.58,14.74Z" />
</svg>
